<svg xmlns="http://www.w3.org/2000/svg" version="1.1" xmlns:xlink="http://www.w3.org/1999/xlink" xmlns:svgjs="http://svgjs.dev/svgjs" width="1440" height="560" preserveAspectRatio="none" viewBox="0 0 1440 560"><g mask="url(&quot;#SvgjsMask1008&quot;)" fill="none"><path d="M -167.32533173065406,87 C -71.33,166.6 120.67,450.2 312.67466826934594,485 C 504.67,519.8 600.67,279.6 792.674668269346,261 C 984.67,242.4 1080.67,416.4 1272.674668269346,392 C 1464.67,367.6 1719.21,123.4 1752.674668269346,139 C 1786.14,154.6 1502.53,403.8 1440,470" stroke="rgba(252, 163, 17, 0.19)" stroke-width="2"></path><path d="M -889.383567890698,390 C -793.38,359 -601.38,254 -409.3835678906981,235 C -217.38,216 -121.38,309.8 70.61643210930191,295 C 262.62,280.2 358.62,136 550.616432109302,161 C 742.62,186 852.74,426.4 1030.616432109302,420 C 1208.49,413.6 1358.12,187.2 1440,129" stroke="rgba(252, 163, 17, 0.19)" stroke-width="2"></path><path d="M -616.2272551677695,77 C -520.23,118.2 -328.23,264.2 -136.2272551677695,283 C 55.77,301.8 151.77,135 343.7727448322305,171 C 535.77,207 631.77,463.2 823.7727448322305,463 C 1015.77,462.8 1180.53,170.8 1303.7727448322305,170 C 1427.02,169.2 1412.75,401.2 1440,459" stroke="rgba(252, 163, 17, 0.19)" stroke-width="2"></path></g><defs><mask id="SvgjsMask1008"><rect width="1440" height="560" fill="#ffffff"></rect></mask></defs></svg>